<svg width="159" height="22" viewBox="0 0 159 22" fill="none" xmlns="http://www.w3.org/2000/svg">
<path d="M4.54162 14.798C4.69075 15.7477 5.18025 16.6107 5.91882 17.2261C6.6574 17.8415 7.5946 18.1672 8.55562 18.1424C10.1972 18.1424 11.3996 17.5088 11.3996 16.1012C11.3996 14.7656 10.6364 14.132 7.82482 13.286C2.90002 11.774 0.85882 9.98121 0.85882 6.42801C0.85882 1.74801 4.65322 0.200012 8.41882 0.200012C12.836 0.200012 16.1192 1.64001 16.5548 5.60001L11.6192 6.77721C11.4392 4.94841 10.0136 4.13841 8.51962 4.13841C7.13362 4.13841 6.03922 4.73961 6.03922 6.07521C6.03922 7.51521 7.20562 8.08041 9.72202 8.81841C14.2472 10.19 16.562 11.6696 16.562 15.6584C16.544 20.1476 12.7496 21.8 8.19202 21.8C3.95842 21.8 1.11442 20.4644 0.0200195 16.7348L4.54162 14.798Z" fill="white"/>
<path d="M18.344 11.018C18.344 4.05199 22.1744 0.217987 28.5248 0.217987C34.8752 0.217987 38.738 4.05199 38.738 11.018C38.738 17.984 34.8716 21.8 28.5248 21.8C22.178 21.8 18.344 17.948 18.344 11.018ZM23.4884 11.0864C23.4884 15.1688 25.13 17.6672 28.5284 17.6672C31.9268 17.6672 33.5972 15.1688 33.5972 11.0864C33.5972 7.00399 31.916 4.47319 28.5248 4.47319C25.1336 4.47319 23.4884 6.97159 23.4884 11.0864V11.0864Z" fill="white"/>
<path d="M40.8979 21.7424V0.257599H54.9199V4.5776H45.8587V9.704H53.7787V13.826H45.8587V21.746L40.8979 21.7424Z" fill="white"/>
<path d="M62.9409 21.7424V4.5596H57.0801V0.257599H73.8237V4.5776H67.8297V21.7424H62.9409Z" fill="white"/>
<path d="M87.9033 21.7424C87.2445 21.2348 86.9889 20.432 86.7729 19.5176L85.9701 16.3064C85.5309 14.4848 84.6921 14.1464 83.0505 14.1464H80.9337V21.7424H75.9729V0.257599H84.4401C89.2569 0.257599 92.2485 2.0072 92.2485 6.824C92.2485 10.1432 90.3153 11.9288 87.5397 12.224V12.2996C89.5125 12.6272 90.5709 13.466 91.1181 15.4352L92.1981 19.4492C92.3802 20.3107 92.7963 21.1054 93.4005 21.746L87.9033 21.7424ZM80.9337 10.0712H84.1089C86.0781 10.0712 87.1725 9.3044 87.1725 7.2596C87.1725 5.438 86.1501 4.4516 84.1089 4.4516H80.9337V10.0712Z" fill="white"/>
<path d="M128.238 16.7816L125.282 11.8568C124.62 10.8238 124.07 9.72318 123.641 8.57359H123.497C123.667 9.78136 123.741 11.0009 123.716 12.2204V21.7424H118.752V0.257594H123.792L127.842 7.5152C129.08 9.632 129.368 10.64 129.368 10.64H129.516C129.931 9.54921 130.444 8.49847 131.049 7.50079L135.135 0.243195H140.096V21.7424H135.171V12.2204C135.151 11.0022 135.211 9.78392 135.351 8.57359H135.2C134.775 9.71867 134.238 10.8185 133.595 11.8568L130.603 16.7816H128.238Z" fill="white"/>
<path d="M146.778 14.798C146.927 15.7477 147.416 16.6107 148.155 17.2261C148.893 17.8415 149.831 18.1672 150.792 18.1424C152.433 18.1424 153.636 17.5088 153.636 16.1012C153.636 14.7656 152.873 14.132 150.061 13.286C145.136 11.774 143.095 9.98121 143.095 6.42801C143.095 1.74801 146.889 0.200012 150.655 0.200012C155.072 0.200012 158.355 1.64001 158.791 5.60001L153.866 6.79521C153.686 4.96641 152.261 4.15641 150.767 4.15641C149.381 4.15641 148.286 4.75761 148.286 6.09321C148.286 7.53321 149.453 8.09841 151.969 8.83641C156.494 10.208 158.791 11.6876 158.791 15.6764C158.78 20.1476 155 21.8 150.428 21.8C146.195 21.8 143.351 20.4644 142.256 16.7348L146.778 14.798Z" fill="white"/>
<path d="M108.751 0.235992H102.631L97.6987 13.8512L103.88 10.4492C104.549 8.52648 105.108 6.56732 105.554 4.58119H105.68C105.956 6.02084 106.316 7.44293 106.76 8.83999L111.037 6.47839L108.751 0.235992ZM112.074 9.34399L108.031 12.5444L108.24 13.1168L109.698 17.2388L111.267 21.7244H116.592L112.074 9.34399Z" fill="white"/>
<path d="M97.1913 15.2516L116.473 4.61359L94.8513 21.7244L97.1913 15.2516Z" fill="#E40046"/>
</svg>
